<?xml version="1.0" encoding="utf-8"?>
<!-- Generator: Adobe Illustrator 20.1.0, SVG Export Plug-In . SVG Version: 6.00 Build 0)  -->
<svg version="1.0" id="Capa_1" xmlns="http://www.w3.org/2000/svg" xmlns:xlink="http://www.w3.org/1999/xlink" x="0px" y="0px"
	 viewBox="0 0 150 48" style="enable-background:new 0 0 150 48;" xml:space="preserve">
<style type="text/css">
	.st0{fill:#555555;}
	.st1{fill:#00B847;}
	.st2{fill:#FFFFFF;}
</style>
<g>
	<path class="st0" d="M4.4,9.4v0.8c0,0.1,0,0.2,0.1,0.3c0.1,0.1,0.2,0.1,0.3,0.1h5.4c0.1,0,0.2,0,0.3,0.1s0.1,0.2,0.1,0.3V14
		c0,0.1,0,0.2-0.1,0.3c-0.1,0.1-0.2,0.1-0.3,0.1H4.9c-0.1,0-0.2,0-0.3,0.1c-0.1,0.1-0.1,0.2-0.1,0.3v0.8c0,0.1,0,0.2,0.1,0.3
		c0.1,0.1,0.2,0.1,0.3,0.1h6.2c0.1,0,0.2,0,0.3,0.1c0.1,0.1,0.1,0.2,0.1,0.3v2.8c0,0.1,0,0.2-0.1,0.3c-0.1,0.1-0.2,0.1-0.3,0.1H1
		c-0.1,0-0.2,0-0.3-0.1c-0.1-0.1-0.1-0.2-0.1-0.3V5.7c0-0.1,0-0.2,0.1-0.3C0.7,5.3,0.8,5.2,1,5.2h10.2c0.1,0,0.2,0,0.3,0.1
		s0.1,0.2,0.1,0.3v2.7c0,0.1,0,0.2-0.1,0.3c-0.1,0.1-0.2,0.1-0.3,0.1H4.9c-0.1,0-0.2,0-0.3,0.1C4.5,9.1,4.4,9.3,4.4,9.4z"/>
	<path class="st0" d="M27.7,5.7v13.7c0,0.1,0,0.2-0.1,0.3c-0.1,0.1-0.2,0.1-0.3,0.1h-3c-0.1,0-0.3,0-0.4-0.1
		c-0.1-0.1-0.3-0.2-0.3-0.3l-5.2-7.3C18.2,12,18.1,12,18,12s-0.1,0.1-0.1,0.2v7.2c0,0.1,0,0.2-0.1,0.3c-0.1,0.1-0.2,0.1-0.3,0.1h-3
		c-0.1,0-0.2,0-0.3-0.1c-0.1-0.1-0.1-0.2-0.1-0.3V5.7c0-0.1,0-0.2,0.1-0.3c0.1-0.1,0.2-0.1,0.3-0.1h3c0.1,0,0.3,0,0.4,0.1
		c0.1,0.1,0.3,0.2,0.3,0.3l5.2,7.3c0.1,0.1,0.2,0.2,0.2,0.1c0.1,0,0.1-0.1,0.1-0.2V5.7c0-0.1,0-0.2,0.1-0.3s0.2-0.1,0.3-0.1h3
		c0.1,0,0.2,0,0.3,0.1C27.6,5.5,27.7,5.6,27.7,5.7z"/>
	<path class="st0" d="M35.3,19.4l-6-13.6c-0.1-0.1-0.1-0.3,0-0.4s0.2-0.2,0.3-0.2h3.3c0.1,0,0.3,0,0.4,0.1c0.1,0.1,0.2,0.2,0.3,0.3
		l3.5,8c0.1,0.1,0.2,0.2,0.3,0.2c0.1,0,0.2-0.1,0.3-0.2l3.5-8c0.1-0.1,0.2-0.2,0.3-0.3c0.1-0.1,0.3-0.1,0.4-0.1h3.3
		c0.1,0,0.3,0.1,0.3,0.2c0.1,0.1,0.1,0.2,0,0.3l-6.1,13.7c-0.1,0.1-0.2,0.2-0.3,0.3c-0.1,0.1-0.3,0.1-0.4,0.1H36
		c-0.1,0-0.3,0-0.4-0.1C35.4,19.7,35.3,19.6,35.3,19.4z"/>
	<path class="st0" d="M49.9,19.9h-3c-0.1,0-0.3,0-0.3-0.1c-0.1-0.1-0.1-0.2-0.1-0.3V5.7c0-0.1,0-0.2,0.1-0.3
		c0.1-0.1,0.2-0.1,0.3-0.1h3c0.1,0,0.2,0,0.3,0.1s0.1,0.2,0.1,0.3v13.7c0,0.1,0,0.2-0.1,0.3C50.1,19.8,50,19.9,49.9,19.9z M50.1,0.4
		L53,1.7c0.3,0.1,0.3,0.3,0.1,0.5l-2.9,2.1c-0.1,0.1-0.2,0.1-0.4,0.2s-0.3,0.1-0.5,0.1h-2.5c-0.1,0-0.2,0-0.3-0.1
		c0-0.1,0-0.2,0.1-0.3l2.8-3.6c0.1-0.1,0.2-0.2,0.3-0.2C49.9,0.4,50,0.4,50.1,0.4z"/>
	<path class="st0" d="M52.2,12.6c0-1,0.2-2,0.6-2.9c0.4-0.9,0.9-1.7,1.6-2.4c0.7-0.7,1.5-1.2,2.4-1.6C57.7,5.2,58.7,5,59.7,5
		s2,0.2,2.9,0.6c0.9,0.4,1.7,0.9,2.4,1.6c0.7,0.7,1.2,1.5,1.6,2.4c0.4,0.9,0.6,1.9,0.6,2.9s-0.2,2-0.6,2.9c-0.4,0.9-0.9,1.7-1.6,2.4
		c-0.7,0.7-1.5,1.2-2.4,1.6c-0.9,0.4-1.9,0.6-2.9,0.6s-2-0.2-2.9-0.6c-0.9-0.4-1.7-0.9-2.4-1.6c-0.7-0.7-1.2-1.5-1.6-2.4
		S52.2,13.6,52.2,12.6z M56.1,12.6c0,0.5,0.1,1,0.3,1.4s0.4,0.9,0.8,1.2c0.3,0.3,0.7,0.6,1.1,0.8c0.4,0.2,0.9,0.3,1.4,0.3
		s1-0.1,1.4-0.3c0.4-0.2,0.8-0.5,1.2-0.8c0.3-0.3,0.6-0.7,0.8-1.2s0.3-0.9,0.3-1.4c0-0.5-0.1-1-0.3-1.4s-0.4-0.9-0.8-1.2
		c-0.3-0.3-0.7-0.6-1.2-0.8c-0.4-0.2-0.9-0.3-1.4-0.3s-1,0.1-1.4,0.3c-0.4,0.2-0.8,0.5-1.1,0.8c-0.3,0.3-0.6,0.7-0.8,1.2
		S56.1,12.1,56.1,12.6z"/>
	<path class="st0" d="M82.7,20.1c-1.1,0-2.1-0.2-3-0.6c-0.9-0.4-1.8-0.9-2.5-1.6s-1.3-1.5-1.7-2.4c-0.4-0.9-0.6-1.9-0.6-2.9
		s0.2-2,0.6-2.9c0.4-0.9,1-1.7,1.7-2.4C78,6.5,78.8,6,79.7,5.6c0.9-0.4,1.9-0.6,3-0.6c1.5,0,2.7,0.3,3.8,0.9c1.1,0.6,2,1.4,2.6,2.5
		c0.1,0.1,0.1,0.2,0.1,0.4c0,0.1-0.1,0.2-0.2,0.3l-2.4,1.5c-0.1,0.1-0.2,0.1-0.4,0.1c-0.1,0-0.2-0.1-0.3-0.2
		c-0.4-0.5-0.9-0.9-1.4-1.2c-0.5-0.3-1.1-0.5-1.8-0.5c-0.5,0-1,0.1-1.4,0.3c-0.4,0.2-0.8,0.5-1.2,0.8c-0.3,0.3-0.6,0.8-0.8,1.2
		c-0.2,0.5-0.3,0.9-0.3,1.4c0,0.5,0.1,1,0.3,1.4c0.2,0.5,0.5,0.9,0.8,1.2c0.3,0.3,0.7,0.6,1.2,0.8c0.4,0.2,0.9,0.3,1.4,0.3
		s1-0.1,1.5-0.3s0.9-0.5,1.2-0.9c0.1-0.1,0.1-0.2,0-0.3c-0.1-0.1-0.1-0.1-0.3-0.1h-2.3c-0.1,0-0.2,0-0.3-0.1
		c-0.1-0.1-0.1-0.2-0.1-0.3v-2.4c0-0.1,0-0.2,0.1-0.3c0.1-0.1,0.2-0.1,0.3-0.1h6.9c0.1,0,0.2,0,0.3,0.1c0.1,0.1,0.2,0.2,0.2,0.4
		c0,0.2,0,0.5,0,0.8s0,0.7-0.1,1c-0.1,0.9-0.4,1.8-0.8,2.6c-0.4,0.8-1,1.5-1.6,2c-0.7,0.6-1.4,1-2.3,1.4
		C84.6,20,83.7,20.1,82.7,20.1z"/>
	<path class="st0" d="M95.3,19.9h-3c-0.1,0-0.2,0-0.3-0.1c-0.1-0.1-0.1-0.2-0.1-0.3V5.7c0-0.1,0-0.2,0.1-0.3
		c0.1-0.1,0.2-0.1,0.3-0.1h6.2c0.8,0,1.5,0.1,2.1,0.4c0.7,0.3,1.2,0.6,1.7,1.1c0.5,0.5,0.8,1,1.1,1.7c0.3,0.6,0.4,1.3,0.4,2.1
		c0,0.4,0,0.9-0.2,1.3c-0.1,0.4-0.2,0.8-0.4,1.2c-0.2,0.4-0.4,0.7-0.7,1c-0.3,0.3-0.5,0.6-0.9,0.8c-0.1,0.1-0.2,0.2-0.2,0.3
		c0,0.1,0,0.2,0.1,0.3c0.5,0.7,1,1.4,1.6,2.1c0.6,0.7,1.1,1.4,1.5,1.9c0.1,0.1,0.1,0.2,0.1,0.4c0,0.1-0.1,0.2-0.3,0.2h-3.7
		c-0.1,0-0.3,0-0.4-0.1s-0.3-0.2-0.3-0.3c-0.4-0.6-0.8-1.1-1.3-1.7c-0.4-0.6-0.8-1.2-1.2-1.7c-0.1-0.1-0.2-0.2-0.3-0.3
		c-0.1-0.1-0.3-0.1-0.4-0.1h-0.4c-0.1,0-0.2,0-0.3,0.1s-0.1,0.2-0.1,0.3v3.2c0,0.1,0,0.2-0.1,0.3C95.5,19.8,95.4,19.9,95.3,19.9z
		 M96.3,12h2.1c0.2,0,0.3,0,0.5-0.1c0.2-0.1,0.3-0.2,0.5-0.3c0.1-0.1,0.3-0.3,0.4-0.5c0.1-0.2,0.1-0.4,0.1-0.7c0-0.1,0-0.3-0.1-0.5
		c0-0.2-0.1-0.4-0.2-0.5c-0.1-0.2-0.3-0.3-0.5-0.4s-0.4-0.2-0.7-0.2h-2.1c-0.1,0-0.2,0-0.3,0.1s-0.1,0.2-0.1,0.3v2.1
		c0,0.1,0,0.2,0.1,0.3S96.1,12,96.3,12z"/>
	<path class="st0" d="M110.6,5.7c0.1-0.1,0.1-0.2,0.3-0.3c0.1-0.1,0.3-0.1,0.4-0.1h2.8c0.1,0,0.3,0,0.4,0.1c0.1,0.1,0.2,0.2,0.3,0.3
		l5.8,13.6c0.1,0.1,0,0.2,0,0.4c-0.1,0.1-0.2,0.2-0.4,0.2h-3.4c-0.1,0-0.3,0-0.4-0.1s-0.2-0.2-0.3-0.3l-0.5-1.2
		c-0.1-0.1-0.2-0.2-0.3-0.3c-0.1-0.1-0.3-0.1-0.4-0.1h-4.2c-0.1,0-0.3,0-0.4,0.1c-0.1,0.1-0.2,0.2-0.3,0.3l-0.6,1.2
		c-0.1,0.1-0.1,0.2-0.3,0.3s-0.3,0.1-0.4,0.1h-3.4c-0.1,0-0.1,0-0.2,0c-0.1,0-0.1-0.1-0.2-0.1c0-0.1-0.1-0.1-0.1-0.2
		c0-0.1,0-0.2,0.1-0.3L110.6,5.7z M111.7,14.4h1.8c0.1,0,0.2,0,0.3-0.1c0.1-0.1,0.1-0.2,0-0.3c-0.1-0.3-0.3-0.7-0.5-1.2
		c-0.2-0.4-0.4-0.9-0.5-1.2c-0.1-0.1-0.1-0.2-0.2-0.2s-0.1,0.1-0.2,0.2l-1,2.4c-0.1,0.1-0.1,0.2,0,0.3
		C111.5,14.4,111.6,14.4,111.7,14.4z"/>
	<path class="st0" d="M129.8,8.9H127c-0.1,0-0.2,0-0.3,0.1c-0.1,0.1-0.1,0.2-0.1,0.3v10c0,0.1,0,0.2-0.1,0.3
		c-0.1,0.1-0.2,0.1-0.3,0.1h-3c-0.1,0-0.2,0-0.3-0.1c-0.1-0.1-0.1-0.2-0.1-0.3v-10c0-0.1,0-0.2-0.1-0.3s-0.2-0.1-0.3-0.1h-2.8
		c-0.1,0-0.2,0-0.3-0.1c-0.1-0.1-0.1-0.2-0.1-0.3V5.7c0-0.1,0-0.2,0.1-0.3c0.1-0.1,0.2-0.1,0.3-0.1h10.6c0.1,0,0.3,0,0.3,0.1
		s0.1,0.2,0.1,0.3v2.7c0,0.1,0,0.2-0.1,0.3C130,8.9,129.9,8.9,129.8,8.9z"/>
	<path class="st0" d="M135.2,19.9h-3c-0.1,0-0.3,0-0.3-0.1c-0.1-0.1-0.1-0.2-0.1-0.3V5.7c0-0.1,0-0.2,0.1-0.3
		c0.1-0.1,0.2-0.1,0.3-0.1h3c0.1,0,0.2,0,0.3,0.1s0.1,0.2,0.1,0.3v13.7c0,0.1,0,0.2-0.1,0.3C135.4,19.8,135.3,19.9,135.2,19.9z"/>
	<path class="st0" d="M139.7,14.9c0.7,0.5,1.4,0.8,2.1,1.1s1.4,0.4,2,0.4c0.6,0,1-0.1,1.3-0.2c0.3-0.2,0.5-0.4,0.5-0.8
		c0-0.2-0.1-0.3-0.2-0.4c-0.1-0.1-0.3-0.2-0.5-0.2c-0.2-0.1-0.5-0.1-0.8-0.2c-0.3,0-0.6-0.1-0.9-0.2c-0.3-0.1-0.6-0.1-1-0.2
		c-0.4-0.1-0.8-0.2-1.2-0.3c-0.4-0.1-0.8-0.3-1.2-0.5c-0.4-0.2-0.8-0.5-1.1-0.8c-0.3-0.3-0.6-0.7-0.8-1.2s-0.3-1-0.3-1.6
		c0-0.9,0.2-1.7,0.5-2.3c0.4-0.6,0.8-1.1,1.4-1.4c0.6-0.4,1.2-0.6,1.9-0.7c0.7-0.1,1.3-0.2,2-0.2c1.1,0,2.1,0.2,3,0.5
		c0.9,0.3,1.7,0.8,2.6,1.4c0.1,0.1,0.2,0.2,0.2,0.3c0,0.1,0,0.3-0.1,0.4l-1.6,2.2c-0.1,0.1-0.2,0.2-0.3,0.2c-0.1,0-0.3,0-0.4-0.1
		c-0.7-0.4-1.3-0.7-1.9-0.9s-1.1-0.3-1.6-0.3c-0.1,0-0.3,0-0.5,0s-0.4,0-0.5,0.1c-0.2,0-0.3,0.1-0.4,0.2c-0.1,0.1-0.2,0.3-0.2,0.4
		s0.1,0.4,0.4,0.5c0.3,0.1,0.6,0.3,1,0.4c0.4,0.1,0.7,0.2,1,0.2c0.3,0.1,0.5,0.1,0.6,0.1c0.5,0.1,1,0.2,1.6,0.4
		c0.6,0.2,1.1,0.4,1.6,0.8c0.5,0.4,0.9,0.8,1.3,1.4c0.3,0.6,0.5,1.3,0.5,2.1c0,0.8-0.1,1.5-0.4,2.1s-0.7,1.1-1.2,1.4
		s-1.1,0.6-1.8,0.8c-0.7,0.2-1.5,0.3-2.3,0.3c-0.7,0-1.3-0.1-1.9-0.2c-0.6-0.1-1.2-0.3-1.7-0.5c-0.5-0.2-1-0.4-1.5-0.7
		c-0.4-0.3-0.9-0.6-1.2-0.9c-0.1-0.1-0.2-0.2-0.2-0.3s0-0.3,0.1-0.4L139,15c0.1-0.1,0.2-0.2,0.3-0.2
		C139.5,14.8,139.6,14.8,139.7,14.9z"/>
</g>
<path class="st1" d="M146.9,25.8C146.4,26,3.6,26,3.1,25.8l4.8,11l-4.8,11c0.5-0.2,143.2-0.2,143.8,0l-4.8-11L146.9,25.8z"/>
<g>
	<path class="st2" d="M43.9,40.2c0-0.4-0.1-0.7-0.4-0.9s-0.7-0.5-1.4-0.7c-1.4-0.5-2.5-0.9-3.2-1.5c-0.7-0.5-1-1.3-1-2.2
		c0-1,0.4-1.7,1.2-2.3c0.8-0.6,1.9-0.9,3.1-0.9c1.3,0,2.3,0.3,3.1,1s1.2,1.5,1.2,2.5l0,0h-2.6c0-0.5-0.2-0.8-0.5-1.1
		c-0.3-0.3-0.7-0.4-1.3-0.4c-0.5,0-0.9,0.1-1.2,0.4c-0.3,0.2-0.5,0.5-0.5,0.9c0,0.3,0.2,0.6,0.5,0.8c0.3,0.2,0.9,0.5,1.7,0.8
		c1.3,0.4,2.3,0.9,2.9,1.4c0.7,0.6,1,1.3,1,2.3c0,1-0.4,1.8-1.2,2.3c-0.8,0.6-1.8,0.8-3.1,0.8c-1.3,0-2.4-0.3-3.4-1
		c-0.9-0.6-1.4-1.6-1.4-2.8l0,0h2.6c0,0.7,0.2,1.1,0.5,1.4c0.4,0.3,0.9,0.4,1.6,0.4c0.5,0,1-0.1,1.2-0.3
		C43.8,40.9,43.9,40.6,43.9,40.2z"/>
	<path class="st2" d="M52,43.2h-2.6V31.9H52V43.2z"/>
	<path class="st2" d="M62.3,38.4h-4.5v2.8h5.3v2h-7.9V31.9h7.9v2h-5.3v2.4h4.5V38.4z"/>
	<path class="st2" d="M68.9,31.9l2.5,8h0l2.6-8h3.5v11.4h-2.6v-2.8l0.2-5.2l0,0l-2.7,8h-1.8l-2.7-8l0,0l0.2,5.1v2.8h-2.6V31.9H68.9z
		"/>
	<path class="st2" d="M83.2,39.4v3.9h-2.6V31.9h4.6c1.3,0,2.4,0.3,3.2,1c0.8,0.7,1.2,1.6,1.2,2.7c0,1.1-0.4,2-1.2,2.7
		c-0.8,0.7-1.9,1-3.2,1H83.2z M83.2,37.3h2c0.6,0,1-0.2,1.3-0.5c0.3-0.3,0.4-0.7,0.4-1.2c0-0.5-0.1-0.9-0.4-1.2
		c-0.3-0.3-0.7-0.5-1.3-0.5h-2V37.3z"/>
	<path class="st2" d="M94.9,38.9v4.4h-2.6V31.9h4.4c1.3,0,2.4,0.3,3.1,0.9s1.2,1.4,1.2,2.5c0,0.6-0.2,1.1-0.5,1.5s-0.8,0.8-1.4,1
		c0.7,0.2,1.2,0.5,1.5,1s0.5,1,0.5,1.7v0.7c0,0.3,0,0.6,0.1,1c0.1,0.4,0.2,0.7,0.5,0.8v0.2h-2.7c-0.2-0.2-0.3-0.4-0.4-0.9
		c-0.1-0.4-0.1-0.8-0.1-1.1v-0.7c0-0.5-0.1-1-0.4-1.2c-0.3-0.3-0.7-0.4-1.3-0.4H94.9z M94.9,36.9h1.7c0.5,0,0.9-0.1,1.2-0.4
		s0.4-0.6,0.4-1c0-0.5-0.1-0.8-0.4-1.1c-0.3-0.3-0.7-0.4-1.2-0.4h-1.7V36.9z"/>
	<path class="st2" d="M111.1,38.4h-4.5v2.8h5.3v2H104V31.9h7.9v2h-5.3v2.4h4.5V38.4z"/>
</g>
</svg>
